<svg width="400" height="400" viewBox="0 -25 300 400" class="looka-1j8o68f"><path xmlns="http://www.w3.org/2000/svg" d="M145.602 351.462 10.648 273.526A21.358 21.358 0 0 1 0 255.066V99.257a21.358 21.358 0 0 1 10.648-18.523L145.602 2.861a21.358 21.358 0 0 1 21.359 0l134.891 77.936A21.358 21.358 0 0 1 312.5 99.32v155.746a21.358 21.358 0 0 1-10.648 18.523l-134.891 77.873a21.358 21.358 0 0 1-21.359 0z" fill="#fff"/><path d="m117.262 118.956 2.26 1.699 6.714 5.064 3.198 2.412 6.08 4.583 2.888 2.182 2.79 2.1 2.688 2.03 2.597 1.955 2.5 1.885 2.406 1.815 2.318 1.747 4.368 3.296 2.055 1.548 3.86 2.913 1.807 1.36 3.386 2.552 1.576 1.189 1.32.997.21.157 20.039 15.111-24.836-7.14-11.513 20.394L116 118l1.262.956m40.117 19.906L196 118l-20.177 35.862-18.444-15" fill="#3a2748" xmlns="http://www.w3.org/2000/svg" fill-rule="evenodd"/><path d="M75.12 209.001h6.556v3.279l-9.123 24.036h-7.374l-9.178-24.037V209h6.556l6.28 17.755zm34.69 6.01H93.695v4.643h13.93v6.01h-13.93v4.643h16.115v6.01H90.69l-4.097-4.098V209h23.218v6.01zm6.283 17.208V209h7.102v21.306h14.751v6.01H120.19zM165.261 209v6.01l-13.93 15.297h13.93v6.008h-23.217v-6.008l13.93-15.297h-13.93V209h23.218zm22.452 0h7.103v27.315h-7.103v-10.653h-9.833v10.653h-7.156l.054-27.315h7.102v10.654h9.833V209zm13.385 23.218V209h7.102v21.306h9.834V209h7.101v23.218l-4.097 4.097h-15.842zM256 213.099v6.664l-2.895 2.895 2.895 2.896v6.665l-4.098 4.097h-20.487v-27.315h20.488zm-7.102 6.555v-4.644h-10.38v4.644h10.38zm0 10.653v-4.644h-10.38v4.644h10.38z" fill="#3a2748"/></svg>